<?xml version="1.0" standalone="yes"?>

<svg version="1.1" viewBox="0.0 0.0 318.21259842519686 165.15748031496062" fill="none" stroke="none" stroke-linecap="square" stroke-miterlimit="10" xmlns="http://www.w3.org/2000/svg" xmlns:xlink="http://www.w3.org/1999/xlink"><clipPath id="p.0"><path d="m0 0l318.2126 0l0 165.15749l-318.2126 0l0 -165.15749z" clip-rule="nonzero"></path></clipPath><g clip-path="url(#p.0)"><path fill="#000000" fill-opacity="0.0" d="m0 0l318.2126 0l0 165.15749l-318.2126 0z" fill-rule="nonzero"></path><path fill="#000000" d="m9.254593 33.10499l0 0c0 -10.057093 8.152884 -18.209976 18.209974 -18.209976l30.671915 0l0 0l73.32284 0l152.87665 0c4.82959 0 9.461365 1.9185457 12.876373 5.333577c3.415039 3.4150333 5.3335876 8.046812 5.3335876 12.876398l0 45.524933l0 0l0 27.314964l0 0c0 10.057091 -8.152893 18.209969 -18.20996 18.209969l-152.87665 0l-121.04916 40.656685l47.726322 -40.656685l-30.671915 0l0 0c-10.057091 0 -18.209974 -8.152878 -18.209974 -18.209969l0 0l0 -27.314964l0 0z" fill-rule="nonzero"></path><path stroke="#000000" stroke-width="2.0" stroke-linejoin="round" stroke-linecap="butt" d="m9.254593 33.10499l0 0c0 -10.057093 8.152884 -18.209976 18.209974 -18.209976l30.671915 0l0 0l73.32284 0l152.87665 0c4.82959 0 9.461365 1.9185457 12.876373 5.333577c3.415039 3.4150333 5.3335876 8.046812 5.3335876 12.876398l0 45.524933l0 0l0 27.314964l0 0c0 10.057091 -8.152893 18.209969 -18.20996 18.209969l-152.87665 0l-121.04916 40.656685l47.726322 -40.656685l-30.671915 0l0 0c-10.057091 0 -18.209974 -8.152878 -18.209974 -18.209969l0 0l0 -27.314964l0 0z" fill-rule="nonzero"></path><path fill="#ffffff" d="m14.238845 33.10499l0 0c0 -10.057093 8.152883 -18.209976 18.209972 -18.209976l28.713913 0l0 0l70.38582 0l146.02362 0c4.82959 0 9.461365 1.9185457 12.876404 5.333577c3.415039 3.4150333 5.3335876 8.046812 5.3335876 12.876398l0 45.524933l0 0l0 27.314964l0 0c0 10.057091 -8.152893 18.209969 -18.209991 18.209969l-146.02362 0l-107.954025 34.062843l37.5682 -34.062843l-28.713913 0l0 0c-10.057091 0 -18.209972 -8.152878 -18.209972 -18.209969l0 0l0 -27.314964l0 0z" fill-rule="nonzero"></path><path stroke="#000000" stroke-width="2.0" stroke-linejoin="round" stroke-linecap="butt" d="m14.238845 33.10499l0 0c0 -10.057093 8.152883 -18.209976 18.209972 -18.209976l28.713913 0l0 0l70.38582 0l146.02362 0c4.82959 0 9.461365 1.9185457 12.876404 5.333577c3.415039 3.4150333 5.3335876 8.046812 5.3335876 12.876398l0 45.524933l0 0l0 27.314964l0 0c0 10.057091 -8.152893 18.209969 -18.209991 18.209969l-146.02362 0l-107.954025 34.062843l37.5682 -34.062843l-28.713913 0l0 0c-10.057091 0 -18.209972 -8.152878 -18.209972 -18.209969l0 0l0 -27.314964l0 0z" fill-rule="nonzero"></path></g></svg>

